<svg width="1170" height="2532" viewBox="0 0 1170 2532" fill="none" xmlns="http://www.w3.org/2000/svg">
  <defs>
    <linearGradient id="screenBgGrad" x1="0" y1="0" x2="1170" y2="2532">
      <stop offset="0%" stop-color="#0052FF"/>
      <stop offset="50%" stop-color="#00D4FF"/>
      <stop offset="100%" stop-color="#7B61FF"/>
    </linearGradient>
    <linearGradient id="cardGrad" x1="0" y1="0" x2="0" y2="1">
      <stop offset="0%" stop-color="rgba(255,255,255,0.08)"/>
      <stop offset="100%" stop-color="rgba(255,255,255,0.02)"/>
    </linearGradient>
    <filter id="screenGlow" x="-50%" y="-50%" width="200%" height="200%">
      <feGaussianBlur stdDeviation="50" result="coloredBlur"/>
      <feMerge>
        <feMergeNode in="coloredBlur"/>
        <feMergeNode in="SourceGraphic"/>
      </feMerge>
    </filter>
  </defs>
  
  <!-- Background -->
  <rect width="1170" height="2532" fill="#0A0B0D"/>
  
  <!-- Glow effects -->
  <ellipse cx="300" cy="400" rx="400" ry="300" fill="#0052FF" opacity="0.12" filter="url(#screenGlow)"/>
  <ellipse cx="900" cy="1200" rx="350" ry="400" fill="#7B61FF" opacity="0.1" filter="url(#screenGlow)"/>
  <ellipse cx="200" cy="2000" rx="300" ry="250" fill="#00D4FF" opacity="0.08" filter="url(#screenGlow)"/>
  
  <!-- Status bar area -->
  <rect x="0" y="0" width="1170" height="100" fill="rgba(10,11,13,0.9)"/>
  
  <!-- Header -->
  <g transform="translate(0, 100)">
    <rect x="0" y="0" width="1170" height="120" fill="rgba(255,255,255,0.02)"/>
    
    <!-- Logo -->
    <g transform="translate(60, 25)">
      <rect width="70" height="70" rx="18" fill="url(#screenBgGrad)"/>
      <path d="M35 15L15 27V47C15 60 23 70 35 78C47 70 55 60 55 47V27L35 15Z" 
            stroke="white" stroke-width="3" fill="none" stroke-linecap="round"/>
      <path d="M25 40L35 50L45 40" stroke="white" stroke-width="3" fill="none" stroke-linecap="round"/>
    </g>
    
    <text x="150" y="75" font-family="system-ui, sans-serif" font-size="40" font-weight="700" fill="white">BaseFlow</text>
    
    <!-- Connect button -->
    <rect x="850" y="25" width="260" height="70" rx="35" fill="url(#screenBgGrad)"/>
    <text x="980" y="70" font-family="system-ui, sans-serif" font-size="28" font-weight="600" fill="white" text-anchor="middle">Connect</text>
  </g>
  
  <!-- Main content area -->
  <g transform="translate(60, 280)">
    <!-- Swap Card -->
    <rect x="0" y="0" width="1050" height="900" rx="40" fill="url(#cardGrad)" stroke="rgba(255,255,255,0.1)" stroke-width="2"/>
    
    <!-- Card header -->
    <text x="50" y="80" font-family="system-ui, sans-serif" font-size="36" font-weight="600" fill="white">⚡ Swap</text>
    
    <!-- You Pay section -->
    <rect x="40" y="120" width="970" height="200" rx="24" fill="rgba(255,255,255,0.05)" stroke="rgba(255,255,255,0.1)" stroke-width="1"/>
    <text x="70" y="165" font-family="system-ui, sans-serif" font-size="24" fill="rgba(255,255,255,0.5)">You Pay</text>
    
    <rect x="70" y="190" width="180" height="70" rx="16" fill="rgba(255,255,255,0.08)"/>
    <circle cx="115" cy="225" r="22" fill="#627EEA"/>
    <text x="150" y="235" font-family="system-ui, sans-serif" font-size="28" font-weight="600" fill="white">ETH</text>
    
    <text x="900" y="240" font-family="system-ui, sans-serif" font-size="56" font-weight="600" fill="white" text-anchor="end">1.0</text>
    
    <!-- Swap arrow -->
    <circle cx="525" cy="370" r="35" fill="#0A0B0D" stroke="rgba(255,255,255,0.1)" stroke-width="2"/>
    <path d="M510 360L525 380L540 360" stroke="url(#screenBgGrad)" stroke-width="4" fill="none" stroke-linecap="round"/>
    
    <!-- You Receive section -->
    <rect x="40" y="420" width="970" height="200" rx="24" fill="rgba(255,255,255,0.05)" stroke="rgba(255,255,255,0.1)" stroke-width="1"/>
    <text x="70" y="465" font-family="system-ui, sans-serif" font-size="24" fill="rgba(255,255,255,0.5)">You Receive</text>
    
    <rect x="70" y="490" width="200" height="70" rx="16" fill="rgba(255,255,255,0.08)"/>
    <circle cx="115" cy="525" r="22" fill="#2775CA"/>
    <text x="150" y="535" font-family="system-ui, sans-serif" font-size="28" font-weight="600" fill="white">USDC</text>
    
    <text x="900" y="540" font-family="system-ui, sans-serif" font-size="56" font-weight="600" fill="#00E5FF" text-anchor="end">2,547.82</text>
    
    <!-- Route info -->
    <rect x="40" y="660" width="970" height="120" rx="20" fill="rgba(0,82,255,0.1)" stroke="rgba(0,82,255,0.2)" stroke-width="1"/>
    <text x="70" y="710" font-family="system-ui, sans-serif" font-size="24" fill="rgba(255,255,255,0.6)">Best route via</text>
    <text x="280" y="710" font-family="system-ui, sans-serif" font-size="24" font-weight="600" fill="#00FF94">🦄 Uniswap V3</text>
    <text x="900" y="710" font-family="system-ui, sans-serif" font-size="22" fill="rgba(255,255,255,0.5)" text-anchor="end">0.3% fee</text>
    
    <!-- Swap button -->
    <rect x="40" y="810" width="970" height="80" rx="24" fill="url(#screenBgGrad)"/>
    <text x="525" y="862" font-family="system-ui, sans-serif" font-size="32" font-weight="700" fill="white" text-anchor="middle">Swap</text>
  </g>
  
  <!-- DCA Card preview -->
  <g transform="translate(60, 1220)">
    <rect x="0" y="0" width="1050" height="400" rx="40" fill="url(#cardGrad)" stroke="rgba(255,255,255,0.1)" stroke-width="2"/>
    <text x="50" y="80" font-family="system-ui, sans-serif" font-size="36" font-weight="600" fill="white">🔄 DCA Strategy</text>
    <text x="50" y="130" font-family="system-ui, sans-serif" font-size="24" fill="rgba(255,255,255,0.5)">Dollar-cost average into any token</text>
    
    <!-- Mini preview -->
    <rect x="40" y="170" width="480" height="180" rx="20" fill="rgba(255,255,255,0.03)"/>
    <text x="70" y="220" font-family="system-ui, sans-serif" font-size="22" fill="rgba(255,255,255,0.5)">Active Orders</text>
    <text x="70" y="270" font-family="system-ui, sans-serif" font-size="40" font-weight="600" fill="white">2</text>
    <text x="70" y="320" font-family="system-ui, sans-serif" font-size="20" fill="#00FF94">↑ $1,240 invested</text>
    
    <rect x="540" y="170" width="470" height="180" rx="20" fill="rgba(255,255,255,0.03)"/>
    <text x="570" y="220" font-family="system-ui, sans-serif" font-size="22" fill="rgba(255,255,255,0.5)">Next Execution</text>
    <text x="570" y="270" font-family="system-ui, sans-serif" font-size="40" font-weight="600" fill="white">12h 34m</text>
    <text x="570" y="320" font-family="system-ui, sans-serif" font-size="20" fill="#00D4FF">ETH → USDC</text>
  </g>
  
  <!-- Limit Orders Card preview -->
  <g transform="translate(60, 1660)">
    <rect x="0" y="0" width="1050" height="400" rx="40" fill="url(#cardGrad)" stroke="rgba(255,255,255,0.1)" stroke-width="2"/>
    <text x="50" y="80" font-family="system-ui, sans-serif" font-size="36" font-weight="600" fill="white">📈 Limit &amp; Stop-Loss</text>
    <text x="50" y="130" font-family="system-ui, sans-serif" font-size="24" fill="rgba(255,255,255,0.5)">Set target prices and protect positions</text>
    
    <rect x="40" y="170" width="480" height="180" rx="20" fill="rgba(0,255,148,0.05)" stroke="rgba(0,255,148,0.2)" stroke-width="1"/>
    <text x="70" y="220" font-family="system-ui, sans-serif" font-size="22" fill="#00FF94">Limit Order</text>
    <text x="70" y="270" font-family="system-ui, sans-serif" font-size="32" font-weight="600" fill="white">Buy ETH @ $2,200</text>
    <text x="70" y="320" font-family="system-ui, sans-serif" font-size="20" fill="rgba(255,255,255,0.5)">10.2% below current</text>
    
    <rect x="540" y="170" width="470" height="180" rx="20" fill="rgba(255,100,100,0.05)" stroke="rgba(255,100,100,0.2)" stroke-width="1"/>
    <text x="570" y="220" font-family="system-ui, sans-serif" font-size="22" fill="#FF6464">Stop-Loss</text>
    <text x="570" y="270" font-family="system-ui, sans-serif" font-size="32" font-weight="600" fill="white">Sell @ $2,000</text>
    <text x="570" y="320" font-family="system-ui, sans-serif" font-size="20" fill="rgba(255,255,255,0.5)">18.4% protection</text>
  </g>
  
  <!-- Bottom navigation -->
  <g transform="translate(0, 2280)">
    <rect x="0" y="0" width="1170" height="200" fill="rgba(10,11,13,0.95)"/>
    <rect x="60" y="40" width="1050" height="120" rx="30" fill="rgba(255,255,255,0.03)"/>
    
    <g transform="translate(180, 70)">
      <circle cx="0" cy="20" r="30" fill="url(#screenBgGrad)"/>
      <text x="0" y="28" font-family="system-ui, sans-serif" font-size="28" fill="white" text-anchor="middle">⚡</text>
      <text x="0" y="75" font-family="system-ui, sans-serif" font-size="18" fill="white" text-anchor="middle">Swap</text>
    </g>
    
    <g transform="translate(420, 70)">
      <circle cx="0" cy="20" r="30" fill="rgba(255,255,255,0.1)"/>
      <text x="0" y="28" font-family="system-ui, sans-serif" font-size="28" fill="rgba(255,255,255,0.6)" text-anchor="middle">🔄</text>
      <text x="0" y="75" font-family="system-ui, sans-serif" font-size="18" fill="rgba(255,255,255,0.6)" text-anchor="middle">DCA</text>
    </g>
    
    <g transform="translate(660, 70)">
      <circle cx="0" cy="20" r="30" fill="rgba(255,255,255,0.1)"/>
      <text x="0" y="28" font-family="system-ui, sans-serif" font-size="28" fill="rgba(255,255,255,0.6)" text-anchor="middle">📈</text>
      <text x="0" y="75" font-family="system-ui, sans-serif" font-size="18" fill="rgba(255,255,255,0.6)" text-anchor="middle">Limit</text>
    </g>
    
    <g transform="translate(900, 70)">
      <circle cx="0" cy="20" r="30" fill="rgba(255,255,255,0.1)"/>
      <text x="0" y="28" font-family="system-ui, sans-serif" font-size="28" fill="rgba(255,255,255,0.6)" text-anchor="middle">🛡️</text>
      <text x="0" y="75" font-family="system-ui, sans-serif" font-size="18" fill="rgba(255,255,255,0.6)" text-anchor="middle">Stop</text>
    </g>
  </g>
</svg>